<?xml version="1.0" standalone="no"?>
<!DOCTYPE svg PUBLIC "-//W3C//DTD SVG 20010904//EN"
 "http://www.w3.org/TR/2001/REC-SVG-20010904/DTD/svg10.dtd">
<svg version="1.0" xmlns="http://www.w3.org/2000/svg"
 width="1280.000000pt" height="852.000000pt" viewBox="0 0 1280.000000 852.000000"
 preserveAspectRatio="xMidYMid meet">
<metadata>
Created by potrace 1.15, written by Peter Selinger 2001-2017
</metadata>
<g transform="translate(0.000000,852.000000) scale(0.100000,-0.100000)"
fill="#03a9f4" stroke="none">
<path d="M6395 8503 c-201 -43 -428 -205 -556 -397 -178 -266 -315 -647 -393
-1094 -14 -78 -32 -157 -41 -175 -8 -18 -40 -57 -70 -87 -57 -56 -68 -80 -37
-80 10 0 98 27 196 60 131 43 204 62 278 71 140 16 702 6 868 -15 343 -44 545
-109 586 -187 17 -34 13 -59 -10 -59 -25 0 -56 -198 -56 -364 0 -100 10 -107
21 -15 7 64 30 102 49 83 8 -8 8 -43 0 -119 -6 -59 -15 -182 -19 -272 -5 -90
-11 -167 -15 -170 -13 -13 -18 9 -23 94 -2 48 -7 99 -9 113 -5 24 -6 24 -19 7
-7 -10 -16 -51 -19 -90 -11 -145 -28 -858 -22 -865 4 -4 14 1 21 12 13 17 14
17 21 -10 10 -41 -10 -169 -32 -201 l-19 -28 -3 28 c-3 23 -22 41 -22 20 -1
-55 -56 -664 -74 -820 -23 -191 -51 -474 -76 -763 -26 -296 -43 -415 -72 -512
-23 -79 -29 -181 -10 -199 8 -9 15 -10 22 -3 20 20 21 26 110 934 35 359 67
600 82 615 19 19 -4 -314 -82 -1195 -57 -651 -60 -690 -40 -690 43 0 95 367
125 895 8 145 33 421 41 463 7 35 18 41 29 15 11 -29 21 2 28 82 8 87 1 114
-29 121 -28 7 -28 7 -8 45 9 19 19 80 25 157 15 200 19 229 34 248 13 18 14
18 23 -6 10 -27 31 -190 62 -485 l19 -180 -4 305 c-3 168 -2 323 3 345 10 56
33 52 53 -8 l16 -49 7 51 c5 37 13 55 33 71 73 57 1245 370 1389 370 22 0 55
10 82 26 29 17 65 28 106 31 40 4 78 15 111 33 71 39 251 100 533 181 155 44
252 67 268 63 73 -19 171 -235 254 -566 101 -399 139 -726 109 -931 l-11 -74
-121 -17 c-67 -9 -219 -30 -337 -47 -118 -16 -390 -52 -605 -79 -491 -62 -546
-76 -560 -139 -3 -15 1 -73 10 -129 19 -126 20 -351 3 -374 -13 -16 -63 -29
-178 -48 -36 -6 -79 -13 -96 -15 l-31 -5 -5 85 c-3 62 -9 90 -21 102 -23 24
-30 12 -35 -60 -5 -83 -18 -117 -47 -117 -27 0 -41 31 -48 103 -3 31 -12 57
-27 72 -13 14 -24 41 -26 67 -9 82 -15 108 -24 108 -33 0 -8 -215 30 -255 47
-50 2 -97 -107 -111 l-53 -7 -1 189 c-1 243 -13 287 -22 79 -3 -88 -12 -182
-19 -209 l-13 -50 -90 -23 c-49 -12 -93 -23 -97 -23 -5 0 -8 134 -8 298 0 510
-29 1282 -50 1347 -10 31 -7 -384 9 -1001 9 -351 1 -618 -18 -637 -10 -9 -18
-5 -36 18 -21 25 -25 27 -31 12 -12 -31 -22 -18 -28 36 -3 28 -11 160 -16 292
-6 132 -13 255 -17 273 -15 84 -22 7 -25 -280 -4 -312 -9 -360 -41 -380 -21
-14 -114 -9 -126 6 -7 8 -20 61 -31 118 -18 105 -32 152 -52 176 -16 19 -28
-3 -28 -53 0 -44 7 -58 32 -68 21 -7 33 -65 23 -114 l-7 -38 -21 40 -22 40 -3
-47 c-4 -56 -27 -78 -82 -78 -19 0 -40 -4 -47 -8 -30 -19 -41 -103 -27 -206 6
-44 8 -46 25 -30 23 21 76 32 239 49 148 16 436 19 385 5 -16 -5 -127 -23
-245 -40 -118 -17 -238 -37 -266 -45 -53 -15 -80 -37 -69 -55 9 -14 137 -12
290 5 177 20 273 20 297 -1 13 -13 21 -14 31 -6 23 19 123 40 269 57 168 19
256 34 264 46 6 11 -8 12 -98 9 -48 -1 -73 3 -92 15 -22 15 -46 17 -159 14
-141 -4 -167 4 -107 33 43 21 119 33 359 58 225 24 271 30 271 39 0 3 -51 5
-112 3 -98 -3 -174 -9 -470 -39 -39 -4 -58 -2 -58 5 0 22 130 45 455 82 99 11
207 25 240 30 95 15 95 15 95 -29 0 -42 -34 -154 -73 -243 -14 -31 -23 -59
-21 -61 3 -3 30 2 61 10 187 49 492 71 736 54 180 -13 298 -38 366 -78 183
-106 420 -297 493 -397 15 -21 28 -52 28 -68 0 -28 1 -28 58 -28 31 0 109 4
172 10 147 11 690 33 696 27 2 -2 7 -40 11 -84 7 -93 -10 -142 -76 -221 -21
-26 -48 -62 -58 -81 -15 -27 -28 -36 -69 -47 -76 -19 -239 -93 -544 -246 -280
-140 -393 -209 -356 -216 10 -2 79 26 154 62 74 37 136 65 137 64 1 -2 10 -17
19 -35 25 -50 55 -72 124 -93 131 -41 286 -54 622 -55 249 0 338 4 425 17 123
19 288 32 600 48 227 12 436 28 473 37 17 4 21 8 12 17 -7 7 -96 12 -268 14
-330 5 -380 22 -107 37 107 6 430 48 490 64 21 5 -9 10 -105 15 -178 9 -330
25 -352 37 -10 5 -18 18 -18 29 0 27 -31 33 -118 25 -41 -4 -119 -7 -173 -7
-95 0 -101 2 -213 51 -63 27 -159 63 -213 80 -54 17 -103 34 -109 38 -18 13
-34 50 -34 80 0 29 -22 71 -75 144 -23 33 -30 54 -33 105 -2 35 -1 83 2 106
l6 43 273 0 c226 0 298 4 427 23 247 35 332 43 560 52 205 8 284 20 264 40
-13 13 -72 14 -366 5 -194 -6 -268 -5 -268 3 0 24 47 34 198 43 191 11 236 17
259 35 16 12 -14 14 -221 12 -178 -2 -240 0 -243 9 -7 20 65 32 246 39 171 7
192 15 78 29 -32 4 -57 11 -57 15 0 4 34 10 75 13 41 4 95 12 120 18 99 25 57
31 -191 27 l-249 -3 -13 28 c-10 20 -15 114 -21 352 -6 255 -11 328 -22 341
-19 24 -85 51 -142 59 -43 7 -51 5 -75 -18 -17 -16 -51 -31 -94 -41 -80 -19
-174 -51 -287 -100 -46 -20 -86 -34 -89 -32 -6 7 157 194 204 235 19 17 44 31
55 31 11 0 52 -14 90 -31 70 -30 119 -35 126 -12 6 17 -49 49 -130 75 -51 17
-67 26 -64 38 3 8 24 65 47 125 112 290 171 660 173 1080 1 219 -8 280 -37
256 -7 -6 -16 -25 -20 -41 -4 -20 -14 -34 -31 -40 -16 -6 -25 -17 -25 -31 0
-17 4 -20 24 -15 33 8 39 -5 22 -46 -16 -36 -22 -117 -36 -483 -11 -259 -19
-337 -50 -457 -42 -163 -132 -330 -162 -300 -5 5 11 73 41 169 58 184 95 326
113 433 19 115 16 468 -6 615 -24 154 -60 255 -84 231 -3 -4 6 -55 21 -114 81
-325 55 -779 -65 -1121 -46 -132 -69 -161 -126 -161 -20 0 -111 33 -226 81
-105 45 -258 106 -341 136 -82 29 -190 68 -240 86 -187 67 -208 103 -235 397
-6 63 -20 183 -32 265 -18 132 -21 192 -20 510 1 323 6 606 10 628 1 5 21 -7
45 -26 39 -32 151 -82 289 -127 137 -46 435 -50 653 -11 133 24 196 46 304
101 45 23 84 40 86 38 3 -2 14 -85 25 -184 21 -186 36 -270 50 -279 20 -12 20
70 0 230 -60 494 -86 544 -347 674 -189 94 -332 126 -523 118 -222 -9 -387
-70 -544 -202 l-84 -70 -6 -190 c-3 -104 -11 -419 -16 -700 -10 -508 -15 -621
-30 -630 -14 -9 -30 47 -70 262 -51 271 -100 475 -146 618 -46 139 -76 198
-107 212 -56 26 -798 134 -1087 159 -345 29 -773 16 -1149 -37 -269 -38 -414
-74 -464 -115 -33 -28 -72 -31 -81 -8 -9 24 -7 204 4 334 5 63 23 291 40 505
35 452 41 514 75 770 32 246 31 356 -5 717 -33 325 -52 471 -76 563 -33 132
-187 397 -286 495 -35 34 -85 67 -152 101 -156 76 -280 95 -431 62z m191 -87
c174 -46 339 -200 438 -410 101 -213 156 -455 191 -841 30 -339 37 -400 46
-415 24 -36 -17 647 -51 858 -11 67 -20 134 -20 147 0 32 27 33 39 3 16 -44
42 -235 51 -383 11 -181 13 -705 2 -705 -4 0 -13 9 -20 20 -7 11 -21 20 -32
20 -47 0 -62 62 -90 360 -38 405 -117 727 -222 904 -62 105 -185 224 -281 271
-124 61 -207 59 -342 -8 -165 -81 -358 -274 -443 -442 -74 -146 -143 -350
-226 -665 -48 -181 -90 -285 -116 -285 -23 0 -16 86 20 265 69 338 137 565
218 725 81 163 234 345 387 460 68 52 182 110 241 124 59 14 153 12 210 -3z
m31 -251 c142 -71 267 -227 336 -421 74 -205 164 -846 128 -912 -16 -30 -58
-29 -162 6 -88 30 -240 62 -399 84 -64 9 -206 13 -433 12 l-338 -1 6 51 c25
202 60 336 130 502 97 226 224 423 365 565 156 156 234 181 367 114z m-524
-168 c-5 -7 -32 -47 -60 -90 -66 -100 -180 -324 -224 -442 -72 -194 -108 -201
-44 -9 68 204 208 469 281 533 33 29 64 34 47 8z m1062 -56 c21 -47 16 -78 -7
-41 -19 31 -31 80 -20 80 5 0 17 -18 27 -39z m75 -1571 c0 -16 -4 -30 -10 -30
-5 0 -10 14 -10 30 0 17 5 30 10 30 6 0 10 -13 10 -30z m4070 -814 c113 -37
294 -126 370 -182 101 -74 112 -128 44 -204 -134 -148 -615 -213 -921 -124
-147 43 -156 51 -169 179 l-7 70 -14 -55 c-8 -30 -19 -61 -25 -67 -13 -16 -52
-17 -80 -2 -25 13 -57 84 -58 125 0 80 139 193 306 248 108 35 186 45 329 42
120 -2 152 -7 225 -30z m-4096 -143 c4 -9 1 -23 -7 -30 -7 -8 -21 -11 -30 -7
-17 6 -23 35 -10 47 12 13 41 7 47 -10z m46 -542 c15 -28 13 -33 -12 -29 -15
2 -24 11 -26 26 -4 28 23 30 38 3z m3144 -1233 c19 -52 46 -178 46 -217 0 -30
-14 -40 -87 -60 -50 -14 -56 1 -43 106 18 142 38 213 60 213 4 0 15 -19 24
-42z m152 -470 c131 -262 201 -349 377 -467 115 -77 135 -112 107 -185 -13
-35 -47 -50 -191 -86 -68 -17 -152 -44 -186 -60 -124 -60 -168 -43 -383 150
-47 42 -107 94 -134 116 -95 77 -392 274 -471 313 -96 48 -327 117 -432 130
-42 5 -80 14 -85 19 -30 30 99 59 322 72 91 5 211 18 266 29 56 11 202 32 326
46 174 19 358 53 405 74 2 1 37 -68 79 -151z m282 36 c328 -109 663 -249 682
-285 7 -12 3 -26 -13 -50 -55 -81 -37 -93 31 -21 48 51 68 45 33 -11 -19 -31
-165 -167 -179 -167 -4 0 -24 27 -46 60 -21 33 -42 60 -47 60 -5 0 -50 -20
-99 -45 -49 -25 -102 -45 -118 -45 -32 0 -126 54 -186 107 -64 56 -154 161
-204 237 -48 73 -114 215 -106 228 7 12 36 4 252 -68z m-1722 -169 c293 -39
503 -108 618 -205 27 -23 63 -44 79 -47 46 -9 276 -189 550 -430 l36 -32 -10
-113 c-21 -242 -66 -447 -105 -479 -24 -20 -65 7 -220 142 -77 68 -167 147
-200 175 l-59 52 28 29 c15 16 27 34 27 41 0 20 -37 14 -76 -13 -45 -30 -68
-31 -142 -4 -104 39 -155 49 -317 64 -88 9 -198 22 -245 30 -99 17 -144 19
-169 5 -20 -10 -231 -33 -239 -26 -9 10 29 261 49 319 23 66 22 104 -1 277
-17 126 -2 202 43 220 35 14 226 11 353 -5z m2162 -337 c7 -7 12 -23 12 -36 0
-19 -4 -23 -26 -20 -31 3 -50 28 -41 52 7 19 38 21 55 4z m-51 -146 c6 -15
-15 -32 -55 -44 -33 -10 -52 0 -52 27 0 40 93 55 107 17z m896 4 c3 -7 1 -19
-4 -27 -7 -12 -11 -11 -25 3 -9 9 -14 23 -11 32 7 17 33 12 40 -8z m-584 -48
c16 -44 14 -78 -4 -78 -27 0 -59 92 -39 113 12 12 33 -5 43 -35z m401 -3 c16
-29 4 -49 -26 -43 -28 5 -33 68 -6 68 10 0 25 -11 32 -25z m-590 -76 c0 -24
-7 -45 -19 -56 -27 -27 -30 -50 -41 -327 -9 -251 -20 -326 -49 -326 -20 0 -28
42 -91 491 -26 188 -26 193 6 218 38 30 83 27 110 -6 27 -34 58 -26 48 12 -3
14 -3 32 0 41 11 29 36 -4 36 -47z m-3372 -8 c20 -12 10 -46 -14 -49 -25 -4
-40 24 -23 44 13 16 19 17 37 5z m-620 -93 c7 -7 12 -20 12 -31 0 -17 2 -17
22 -3 24 17 167 20 298 7 79 -8 64 -15 -77 -36 -124 -18 -239 -19 -273 -2 -29
14 -37 41 -20 62 15 18 22 19 38 3z m-175 -19 c25 -11 47 -47 47 -74 0 -11
-12 -15 -43 -15 -48 0 -87 22 -87 50 0 17 34 50 52 50 4 0 18 -5 31 -11z
m3897 -188 c0 -17 -4 -33 -10 -36 -6 -4 -10 8 -10 29 0 20 5 36 10 36 6 0 10
-13 10 -29z m18 -187 c15 -56 10 -210 -7 -227 -19 -19 -31 41 -31 164 0 92 3
120 13 117 6 -3 18 -27 25 -54z m109 -698 c24 -20 25 -26 14 -40 -15 -18 -82
-22 -112 -6 -21 12 -26 56 -6 63 32 13 77 6 104 -17z m3 -160 c83 -29 122 -58
102 -78 -17 -17 -145 -23 -208 -9 -58 13 -104 43 -104 68 0 9 8 25 18 36 22
25 89 19 192 -17z m-291 1 c6 -8 14 -29 17 -48 17 -88 67 -103 434 -124 318
-19 364 -24 387 -41 17 -13 17 -15 -9 -38 -33 -29 -97 -49 -255 -78 -165 -29
-630 -33 -766 -5 -162 33 -247 79 -233 124 11 35 221 161 341 204 61 22 69 23
84 6z m610 -111 c15 -8 34 -22 42 -32 13 -16 11 -17 -31 -10 -50 8 -94 32 -85
46 9 14 42 12 74 -4z"/>
<path d="M10723 5365 c-26 -62 -46 -231 -23 -195 17 27 41 146 38 186 l-3 39
-12 -30z"/>
<path d="M9085 2875 c35 -29 48 -31 65 -10 19 23 2 35 -48 35 l-47 -1 30 -24z"/>
<path d="M9368 2849 c-22 -13 -23 -25 -2 -33 19 -7 44 10 44 30 0 16 -18 18
-42 3z"/>
<path d="M8794 2765 c-10 -26 6 -38 27 -19 10 9 19 21 19 26 0 14 -40 9 -46
-7z"/>
<path d="M8878 2678 c-9 -23 3 -38 28 -38 19 0 24 5 24 25 0 20 -5 25 -24 25
-13 0 -26 -6 -28 -12z"/>
<path d="M9162 2554 c-12 -8 -22 -19 -22 -25 0 -16 50 -10 57 7 9 25 -10 36
-35 18z"/>
<path d="M8863 2483 c-7 -3 -13 -16 -13 -30 0 -20 4 -24 23 -21 13 2 23 11 25
24 3 22 -13 34 -35 27z"/>
<path d="M9445 2478 c-10 -26 1 -48 25 -48 25 0 25 11 1 41 -18 22 -20 22 -26
7z"/>
<path d="M9216 2384 c-9 -8 -16 -24 -16 -35 0 -24 43 -69 65 -69 19 0 20 16 0
24 -10 3 -15 19 -15 45 0 46 -12 58 -34 35z"/>
<path d="M9660 2350 c-18 -34 -10 -120 12 -120 16 0 39 70 33 100 -8 35 -31
46 -45 20z"/>
<path d="M3119 7715 c-216 -30 -331 -81 -374 -165 -19 -37 -12 -52 61 -133
110 -122 196 -343 244 -624 57 -334 38 -984 -36 -1240 -60 -208 -227 -503
-478 -847 -96 -132 -134 -196 -114 -196 51 0 463 577 579 810 50 102 93 286
121 525 17 145 17 709 0 870 -25 225 -49 329 -122 519 -23 59 -39 111 -36 114
3 3 91 -9 194 -26 202 -34 247 -37 333 -23 30 5 90 15 134 21 44 7 133 26 198
42 65 17 121 28 124 24 7 -7 0 -38 -60 -243 -65 -219 -72 -295 -72 -768 0
-472 -3 -451 84 -674 23 -58 41 -110 41 -117 0 -7 -25 -41 -55 -76 -31 -35
-70 -92 -88 -128 -27 -55 -32 -75 -32 -140 0 -62 5 -85 28 -132 53 -107 174
-194 305 -218 53 -9 78 -8 147 5 46 9 89 14 95 10 5 -3 25 -30 44 -59 47 -74
200 -250 331 -382 113 -114 155 -147 155 -121 0 26 -59 103 -197 256 -183 203
-281 328 -294 371 -9 28 -7 48 5 90 32 108 26 135 -66 271 -90 135 -180 232
-224 243 -88 22 -136 97 -178 276 -61 259 -79 523 -52 760 32 276 92 552 167
768 21 63 39 125 39 138 0 35 -74 105 -145 139 -108 51 -214 66 -475 70 -164
3 -264 0 -331 -10z m640 -80 c153 -30 238 -75 229 -122 -4 -23 -110 -76 -194
-97 -113 -28 -252 -39 -434 -33 -302 10 -488 55 -534 130 -34 54 106 111 338
137 119 14 499 5 595 -15z m333 -2126 c37 -27 109 -109 152 -174 96 -144 114
-218 74 -295 -32 -61 -75 -81 -172 -82 -95 0 -149 23 -218 94 -107 110 -123
209 -55 344 33 65 84 125 117 137 23 9 72 -3 102 -24z"/>
<path d="M3960 5429 c-35 -58 -44 -106 -32 -182 18 -115 72 -195 162 -237 57
-27 80 -23 134 23 l38 33 -85 -1 c-76 0 -88 3 -110 23 -60 56 -100 206 -84
311 4 29 6 56 3 58 -3 3 -14 -10 -26 -28z"/>
<path d="M4003 5312 c9 -44 46 -136 63 -158 14 -18 15 -15 10 38 -7 71 -39
148 -62 148 -13 0 -15 -6 -11 -28z"/>
<path d="M5695 6679 l-48 -51 6 -65 c2 -36 9 -69 14 -74 6 -6 31 12 66 51 52
56 57 65 57 106 0 50 -14 84 -34 84 -7 0 -35 -23 -61 -51z"/>
<path d="M5984 6722 c-23 -15 -37 -59 -37 -112 1 -63 25 -130 47 -130 16 0 59
48 82 93 40 77 -30 191 -92 149z"/>
<path d="M6251 6717 c-6 -8 -18 -30 -26 -51 -13 -30 -13 -45 -4 -79 10 -40 45
-117 53 -117 9 0 77 115 82 139 13 65 -69 150 -105 108z"/>
<path d="M6556 6709 c-38 -30 -86 -98 -86 -121 0 -10 11 -22 24 -28 18 -6 27
-20 32 -45 3 -19 12 -35 18 -35 7 0 40 28 74 62 70 70 76 94 39 149 -28 42
-63 48 -101 18z"/>
<path d="M6848 6623 c-15 -9 -32 -27 -39 -40 -11 -20 -9 -29 8 -61 14 -24 19
-47 16 -65 -6 -32 12 -58 35 -50 46 16 122 112 122 154 0 34 -50 79 -88 79
-15 0 -39 -8 -54 -17z m66 -49 c20 -19 21 -44 2 -44 -20 0 -39 27 -32 45 7 19
11 19 30 -1z"/>
<path d="M5465 6606 c-9 -13 -34 -31 -56 -40 -21 -9 -39 -19 -39 -22 0 -18 55
-162 68 -176 21 -25 30 -22 44 10 7 15 29 49 50 76 42 53 42 61 4 131 -26 48
-49 55 -71 21z"/>
<path d="M5275 6555 c-27 -63 -37 -176 -45 -510 -4 -185 -12 -345 -18 -364 -6
-18 -14 -97 -18 -175 -7 -163 -16 -209 -46 -230 -21 -15 -21 -17 -6 -49 9 -19
19 -62 23 -98 8 -76 -11 -287 -31 -344 -17 -51 -17 -75 1 -99 13 -18 13 -22
-7 -43 -19 -21 -20 -26 -8 -48 8 -14 21 -24 29 -23 20 4 26 39 51 289 22 215
43 366 55 377 9 9 25 -19 25 -45 0 -13 6 -23 14 -23 20 0 106 98 106 121 0 27
-47 117 -76 146 -27 27 -44 23 -44 -10 0 -40 -21 -98 -32 -91 -7 5 -9 45 -4
128 7 132 20 196 40 196 7 0 27 -18 45 -41 l33 -40 25 23 c71 67 76 110 22
204 -29 52 -49 68 -49 41 0 -22 -60 -108 -70 -102 -11 7 -12 265 -1 305 11 41
34 29 55 -28 18 -50 20 -52 37 -36 10 9 33 45 51 80 l33 64 -35 67 c-19 36
-39 65 -45 64 -5 -1 -16 -18 -23 -38 -7 -20 -20 -45 -29 -55 -33 -37 -38 -6
-35 212 1 116 0 210 -3 210 -3 0 -13 -16 -20 -35z"/>
<path d="M6091 6397 c-6 -6 -11 -22 -11 -36 0 -13 -12 -49 -26 -79 -26 -55
-26 -74 -2 -134 15 -39 37 -35 88 17 41 42 45 50 44 94 0 33 -9 62 -27 93 -29
49 -48 63 -66 45z"/>
<path d="M5842 6355 c-12 -14 -26 -42 -33 -62 -15 -46 -7 -139 14 -160 15 -15
18 -15 38 3 78 69 98 143 56 205 -29 43 -49 47 -75 14z"/>
<path d="M6346 6323 c-33 -51 -37 -63 -33 -105 4 -47 47 -128 67 -128 17 0
100 121 100 145 0 23 -74 145 -88 145 -4 0 -25 -26 -46 -57z"/>
<path d="M6656 6368 c-3 -7 -7 -26 -11 -42 -3 -17 -22 -44 -41 -62 -19 -18
-34 -36 -34 -41 0 -5 16 -34 36 -66 41 -65 72 -81 105 -51 57 52 64 141 16
213 -31 46 -65 70 -71 49z"/>
<path d="M5626 6295 c-39 -51 -56 -98 -56 -153 0 -56 9 -112 19 -112 12 0 91
115 102 148 8 26 7 44 -7 88 -9 30 -20 57 -24 59 -4 3 -20 -11 -34 -30z"/>
<path d="M6941 6245 c-28 -31 -51 -64 -51 -74 0 -29 62 -81 97 -81 61 0 115
79 99 144 -9 36 -44 35 -52 -1 -10 -49 -13 -53 -34 -53 -23 0 -25 16 -9 73 6
22 8 41 6 43 -2 3 -27 -21 -56 -51z"/>
<path d="M7157 6043 c-11 -10 -8 -63 3 -63 6 0 10 16 10 35 0 36 -2 40 -13 28z"/>
<path d="M6420 5901 c-26 -26 -30 -37 -30 -86 0 -83 28 -185 50 -185 22 0 108
94 116 127 5 18 0 31 -19 51 -13 15 -34 46 -46 69 -11 23 -25 44 -31 48 -6 3
-24 -7 -40 -24z"/>
<path d="M6156 5889 c-33 -26 -63 -84 -72 -138 -13 -82 20 -125 74 -97 44 23
102 92 102 122 0 34 -25 86 -54 113 l-23 21 -27 -21z m29 -105 c14 -6 14 -8
-1 -25 -9 -11 -23 -19 -31 -19 -17 0 -17 37 0 43 6 3 13 6 14 6 1 1 9 -2 18
-5z"/>
<path d="M5854 5857 c-29 -29 -44 -53 -44 -70 0 -23 35 -151 47 -170 6 -11 45
25 94 86 46 57 50 93 16 152 -32 57 -57 57 -113 2z"/>
<path d="M6755 5881 c-59 -36 -68 -54 -62 -123 3 -35 10 -76 16 -91 l11 -28
45 36 c73 60 116 146 93 189 -22 41 -55 47 -103 17z"/>
<path d="M5644 5870 c-69 -27 -103 -166 -58 -237 20 -32 40 -29 81 12 l35 35
-3 85 c-4 93 -18 119 -55 105z"/>
<path d="M6987 5803 c-21 -20 -37 -46 -37 -59 0 -31 58 -151 64 -133 15 40 36
149 36 187 0 53 -14 54 -63 5z"/>
<path d="M6851 5541 c-30 -42 -61 -112 -61 -139 0 -13 10 -57 22 -98 l21 -75
48 47 c75 73 77 87 39 194 -18 50 -36 93 -41 95 -4 3 -17 -8 -28 -24z"/>
<path d="M6313 5497 c-66 -70 -80 -116 -59 -191 18 -62 39 -85 60 -67 7 6 26
39 42 74 23 50 29 76 29 132 0 39 -5 78 -11 88 -9 16 -16 12 -61 -36z"/>
<path d="M6542 5476 c-40 -42 -52 -62 -52 -87 0 -35 45 -125 66 -133 19 -7 68
62 84 119 11 38 10 55 -1 98 -9 31 -20 53 -30 55 -8 1 -39 -22 -67 -52z"/>
<path d="M6021 5469 c-37 -40 -51 -94 -40 -153 14 -78 58 -122 68 -70 4 23 19
34 48 34 31 0 43 26 31 69 -14 51 -54 137 -67 145 -6 4 -24 -7 -40 -25z"/>
<path d="M5762 5483 c-19 -8 -52 -78 -58 -125 -7 -52 14 -121 38 -126 20 -4
97 63 109 97 12 29 -12 107 -42 139 -20 23 -25 24 -47 15z"/>
<path d="M5507 5418 c-60 -96 -81 -158 -63 -183 11 -15 16 -15 61 2 60 22 95
68 95 125 0 49 -24 108 -45 108 -8 0 -30 -24 -48 -52z"/>
<path d="M7038 5443 c-9 -10 -19 -28 -22 -40 -6 -19 -3 -23 13 -23 21 0 64 47
58 64 -6 18 -32 18 -49 -1z"/>
<path d="M1806 5267 c-40 -43 -77 -117 -84 -169 l-5 -40 -50 5 c-27 4 -79 20
-115 37 -86 40 -131 50 -187 39 -68 -13 -103 -43 -139 -118 -31 -66 -31 -67
-31 -231 0 -182 10 -247 71 -453 71 -242 128 -368 403 -899 31 -59 53 -109 51
-112 -3 -2 -67 -17 -143 -32 l-139 -27 -226 230 c-311 315 -480 445 -688 529
-89 36 -273 84 -322 84 -84 0 -202 -67 -202 -114 1 -34 34 -99 68 -131 18 -17
138 -80 279 -146 252 -117 442 -221 614 -334 105 -70 199 -150 199 -170 0 -7
-18 -15 -45 -18 -95 -14 -379 -140 -419 -188 -18 -21 -26 -46 -31 -96 -4 -38
-11 -87 -15 -110 -9 -54 5 -75 60 -92 25 -7 44 -20 49 -33 4 -11 1 -70 -7
-132 -40 -321 101 -668 339 -835 196 -138 732 -221 1428 -221 384 0 573 16
891 74 91 17 270 31 655 51 402 20 598 36 610 47 11 11 -325 4 -570 -13 -187
-12 -332 -11 -340 1 -12 19 59 38 175 49 63 6 268 15 455 21 468 13 611 24
584 41 -8 5 -104 9 -214 10 -168 1 -371 12 -328 17 7 1 156 11 330 22 334 21
429 32 503 57 57 20 400 31 443 14 28 -11 31 -15 42 -64 3 -16 21 -45 40 -64
39 -40 45 -80 21 -138 -18 -42 -12 -41 -336 -55 -348 -14 -590 -48 -590 -83
-1 -18 128 -269 155 -303 22 -27 25 -28 47 -14 18 11 72 16 238 20 213 6 215
6 254 33 40 28 110 52 125 43 5 -3 11 -28 15 -56 4 -27 22 -101 41 -164 43
-140 43 -163 6 -210 -43 -54 -56 -99 -37 -128 22 -34 114 -86 212 -120 111
-38 244 -45 604 -29 555 25 976 68 1059 110 51 26 122 39 296 56 332 32 455
57 455 91 0 17 11 18 -150 -6 -254 -38 -454 -60 -539 -59 -105 1 -82 8 129 39
80 12 147 24 149 26 2 2 -20 4 -50 4 -73 1 -198 17 -231 31 -57 23 -30 34 107
44 132 9 235 26 228 38 -7 12 -212 3 -418 -18 -77 -8 -175 -15 -219 -15 -134
0 -256 44 -256 92 0 12 28 104 61 204 l62 184 453 0 c268 0 484 -4 531 -11
129 -18 210 -64 197 -114 -4 -18 -1 -27 10 -31 9 -3 114 3 233 15 120 12 346
32 503 46 327 29 367 34 348 46 -7 5 -128 9 -268 9 -246 0 -300 4 -300 20 0
13 137 30 365 45 372 25 495 40 503 63 5 17 -33 16 -244 -7 -253 -28 -384 -36
-384 -24 0 12 21 20 280 108 227 78 314 117 336 151 21 31 5 54 -37 54 -37 0
-44 14 -23 49 10 16 14 36 10 46 -9 25 -79 15 -198 -26 -146 -50 -177 -59
-183 -49 -3 5 34 28 82 51 170 82 214 119 177 146 -30 22 -60 15 -203 -41
-161 -64 -348 -125 -507 -166 -200 -52 -223 -35 -34 24 136 42 162 56 109 56
-53 0 -274 -57 -346 -90 -47 -21 -63 -34 -63 -49 0 -11 9 -23 22 -27 34 -10
130 -5 210 11 81 17 71 14 293 84 205 64 235 71 235 60 0 -4 -14 -18 -30 -31
-37 -27 -39 -48 -4 -48 14 0 23 -4 20 -8 -7 -12 -94 -29 -206 -42 -170 -18
-325 -58 -367 -94 -71 -61 58 -60 266 3 74 23 144 41 155 41 20 -1 20 -1 -2
-20 -23 -19 -56 -31 -185 -65 -64 -17 -137 -74 -137 -106 0 -11 -14 -28 -32
-38 -45 -28 -183 -63 -254 -65 -72 -1 -92 12 -129 84 -27 51 -114 161 -133
168 -9 3 -10 -3 -2 -24 12 -32 6 -42 -15 -24 -19 16 -20 92 -1 129 14 25 27
31 148 60 155 38 724 191 816 219 34 11 62 16 62 12 0 -4 -16 -20 -36 -35 -26
-20 -33 -30 -24 -39 24 -24 234 123 216 152 -10 17 -104 -3 -401 -88 -355
-101 -568 -146 -735 -156 -132 -8 -140 -14 -147 -106 -2 -35 -9 -73 -15 -85
-27 -55 -182 -75 -463 -62 -466 23 -540 46 -580 182 -16 56 -16 59 5 103 30
61 22 108 -23 150 -55 51 -143 79 -380 118 -102 17 -140 37 -135 69 3 24 34
42 132 79 63 24 101 63 90 91 -3 9 -35 30 -71 47 -36 17 -99 54 -140 82 -110
73 -125 78 -260 78 -143 -1 -407 -16 -446 -25 -32 -8 -31 -28 1 -33 26 -4 28
-15 7 -32 -24 -20 -18 -29 23 -35 69 -12 82 -24 25 -24 -98 -2 -131 28 -140
127 -7 78 5 99 63 108 25 3 48 13 51 20 3 8 -7 30 -22 50 -32 41 -31 48 21
197 24 69 26 81 15 117 -35 118 -199 195 -307 144 -72 -34 -116 -101 -116
-174 0 -60 20 -101 82 -170 27 -30 50 -61 50 -68 0 -8 -14 -34 -32 -58 -39
-55 -32 -75 33 -86 24 -4 50 -15 57 -25 18 -24 15 -77 -6 -96 -20 -18 -152
-47 -217 -47 -80 0 -47 34 46 47 61 9 84 33 56 60 -22 23 -115 32 -339 32
l-178 1 0 28 c0 15 5 65 10 110 6 46 15 187 19 315 5 128 12 240 16 250 13 30
34 19 45 -25 20 -77 26 -91 43 -102 24 -16 46 1 85 65 39 64 40 106 2 229
l-22 75 -42 -85 c-22 -46 -46 -85 -53 -87 -27 -9 -38 43 -41 205 -5 196 2 266
29 293 26 26 21 49 -13 69 -48 26 -52 11 -58 -214 -4 -182 -7 -206 -24 -225
-19 -21 -19 -22 -1 -55 16 -29 17 -39 7 -61 -8 -16 -12 -80 -12 -171 0 -125
-3 -150 -20 -184 -16 -32 -18 -44 -8 -70 11 -32 5 -317 -8 -402 -6 -35 -4 -38
31 -52 31 -13 36 -20 33 -43 -5 -46 -48 -53 -318 -53 -131 0 -244 2 -251 4
-51 15 -52 16 -39 31 7 8 28 15 47 15 50 0 104 42 226 172 126 135 205 232
222 273 23 53 -2 113 -39 99 -10 -4 -35 -43 -57 -88 -72 -146 -236 -353 -311
-392 -15 -8 -28 -11 -28 -7 0 4 40 59 88 123 154 201 245 376 312 601 100 337
91 724 -21 865 -16 20 -29 47 -29 59 0 73 -170 232 -276 259 -46 11 -51 16
-80 71 -49 95 -153 147 -292 147 -124 0 -366 -69 -572 -162 -160 -73 -198 -79
-745 -115 -209 -14 -387 -28 -396 -30 -17 -6 -52 29 -228 228 -58 65 -169 176
-247 247 l-141 130 40 42 c52 55 77 111 77 176 0 76 -18 104 -88 135 -77 35
-98 34 -136 -6z m152 -109 c33 -69 -82 -180 -145 -140 -23 14 -31 55 -19 97
14 50 35 55 82 18 l37 -28 -7 36 c-3 19 -3 39 1 43 13 13 38 1 51 -26z m-497
-132 c182 -39 512 -233 683 -403 181 -179 574 -751 761 -1106 56 -108 125
-282 125 -317 0 -24 -83 -145 -105 -154 -21 -8 -90 7 -225 48 -63 19 -209 62
-325 95 -210 60 -486 150 -519 168 -17 9 -42 40 -167 204 -187 244 -371 728
-420 1104 -20 154 -2 344 34 367 18 12 85 9 158 -6z m2917 -481 c68 -21 92
-52 92 -121 0 -116 -67 -230 -243 -411 -133 -136 -259 -251 -452 -408 -304
-249 -528 -414 -582 -430 -42 -12 -26 28 35 86 31 31 185 168 342 304 549 478
691 616 749 724 67 126 33 181 -111 181 -212 0 -448 -95 -913 -367 -410 -240
-420 -249 -409 -340 l7 -48 -20 25 c-32 40 -143 206 -143 213 0 4 11 7 24 7
39 0 169 59 433 198 645 338 984 448 1191 387z m-94 -135 c-11 -11 -274 -44
-301 -37 -29 6 33 28 107 37 99 11 206 12 194 0z m-3871 -407 c16 -12 52 -27
82 -33 94 -20 333 -185 576 -398 248 -218 335 -342 238 -342 -47 0 -110 36
-250 142 -294 223 -675 442 -841 483 -71 18 -123 57 -134 102 -13 52 46 73
196 70 92 -2 109 -5 133 -24z m2677 -565 c19 -6 54 -8 78 -5 59 7 82 -1 82
-27 0 -33 -26 -63 -68 -77 -52 -16 -62 -27 -59 -62 5 -74 -44 -15 -83 99 -26
73 -26 99 -2 89 9 -4 33 -12 52 -17z m686 -68 c24 0 32 -4 28 -13 -6 -17 130
-27 360 -27 164 0 314 -14 330 -30 6 -6 2 -18 -15 -36 l-24 -26 50 7 c46 6 48
5 31 -9 -27 -22 -107 -37 -226 -42 -123 -6 -119 9 7 28 122 18 115 32 -13 24
-168 -9 -682 -77 -708 -93 -5 -3 -1 -10 8 -15 9 -5 16 -17 16 -27 0 -11 6 -21
14 -24 13 -5 304 20 335 29 9 3 11 12 7 30 -7 25 -5 26 21 19 65 -18 112 -24
176 -25 38 0 67 -4 67 -10 0 -5 -3 -10 -7 -10 -5 0 -57 -9 -118 -20 -161 -30
-576 -88 -675 -95 -47 -3 -95 -8 -107 -11 -13 -2 -23 -1 -23 4 0 4 49 18 109
31 157 34 159 43 9 38 -74 -3 -126 -1 -122 4 3 5 12 9 20 9 28 0 13 17 -28 33
-47 19 -47 20 13 50 30 15 49 34 61 59 15 31 26 40 70 53 28 8 72 15 97 15 62
0 83 14 42 28 -33 12 -39 25 -18 39 16 11 115 22 151 17 16 -2 44 -4 62 -4z
m1493 -39 c8 -14 7 -22 -4 -31 -19 -16 -45 -6 -45 18 0 36 33 45 49 13z
m-3871 -150 c74 -38 186 -155 276 -290 41 -61 44 -71 17 -71 -54 0 -410 347
-384 374 12 12 54 6 91 -13z m187 9 c15 -7 9 -9 -25 -9 -33 -1 -41 2 -30 9 18
12 28 12 55 0z m-325 -38 c47 -38 -3 -96 -81 -94 -32 1 -86 29 -93 48 -5 12
37 43 74 57 32 12 79 6 100 -11z m2650 8 c12 -8 12 -10 -3 -16 -22 -8 -50 3
-42 16 8 12 25 13 45 0z m700 -33 c0 -41 -30 -106 -61 -133 -13 -12 -46 -29
-74 -37 -27 -8 -83 -27 -123 -41 -151 -53 -487 -139 -749 -192 -150 -29 -279
-54 -287 -54 -43 0 4 103 57 125 17 7 102 29 187 49 288 67 639 173 865 261
187 73 185 73 185 22z m-1474 8 c8 -20 -11 -42 -41 -47 -38 -8 -51 6 -37 36 9
20 19 26 42 26 18 0 33 -6 36 -15z m-1487 -21 c11 -25 15 -26 66 -22 31 3 63
12 73 21 10 9 22 17 25 17 14 0 89 -74 103 -101 33 -65 0 -66 -68 -3 -38 35
-52 44 -61 35 -9 -9 -6 -21 11 -52 20 -35 21 -40 7 -45 -27 -11 -57 10 -69 46
-6 21 -19 36 -30 38 -17 4 -18 -1 -12 -52 3 -31 4 -56 1 -56 -11 0 -84 122
-90 150 -12 52 22 71 44 24z m2078 20 c28 -8 20 -24 -12 -24 -25 0 -39 12 -28
24 8 7 12 7 40 0z m1989 -9 c8 -20 -13 -45 -38 -45 -24 0 -34 26 -18 45 16 19
49 19 56 0z m-2528 -92 c-2 -12 -13 -18 -33 -18 -20 0 -31 6 -33 18 -3 14 4
17 33 17 29 0 36 -3 33 -17z m712 -22 c0 -12 -90 -32 -320 -71 -202 -35 -210
-35 -236 -15 -28 22 -6 31 90 39 44 4 144 15 221 26 127 18 177 24 228 28 9 1
17 -2 17 -7z m-646 -43 c21 -29 20 -67 0 -75 -24 -9 -53 49 -40 82 8 21 22 19
40 -7z m-1960 -27 c17 -19 17 -20 -4 -31 -22 -12 -76 -5 -86 11 -10 16 17 39
46 39 15 0 35 -9 44 -19z m684 7 c18 -18 15 -51 -4 -44 -9 3 -18 6 -20 6 -2 0
-4 11 -4 25 0 27 9 32 28 13z m-99 -32 c9 -11 8 -18 -4 -30 -20 -20 -35 -20
-60 -2 -26 19 -13 46 23 46 16 0 35 -6 41 -14z m1296 -36 c0 -20 -45 -41 -73
-33 -24 6 -30 38 -9 47 25 11 82 1 82 -14z m-2333 -10 c89 -25 226 -45 438
-65 293 -27 351 -44 420 -123 44 -49 48 -60 25 -69 -20 -7 -398 32 -565 58
-217 34 -394 82 -432 116 -25 23 -23 68 4 87 28 20 24 20 110 -4z m1218 -15
c0 -16 -43 -31 -59 -20 -25 15 -11 35 24 35 24 0 35 -5 35 -15z m2445 -7 c-2
-13 -14 -79 -25 -148 -37 -223 -75 -345 -119 -384 -15 -14 -21 -31 -21 -61 0
-56 -39 -115 -128 -195 -143 -127 -350 -260 -407 -260 -12 0 -49 -14 -81 -31
-203 -109 -547 -168 -1144 -199 -338 -17 -577 -14 -741 10 -248 36 -488 101
-639 172 -235 113 -363 368 -377 756 -7 178 -23 162 142 132 60 -11 233 -31
385 -45 306 -28 365 -37 412 -61 76 -38 108 -87 108 -167 0 -47 4 -57 32 -87
l33 -33 3 34 c1 19 -8 81 -21 139 -13 58 -22 107 -20 109 2 3 18 -13 35 -35
59 -72 162 -176 220 -221 94 -72 178 -100 178 -58 0 6 -74 67 -166 135 -166
124 -195 153 -176 172 7 7 157 14 396 19 440 9 724 30 841 60 44 12 170 36
281 54 246 41 385 72 591 131 160 46 321 81 381 83 29 1 32 -2 27 -21z m-2605
-22 c0 -19 -38 -46 -56 -39 -14 5 -19 35 -7 46 13 13 63 7 63 -7z m1324 -67
c12 -18 13 -27 2 -52 -16 -40 -30 -44 -44 -12 -30 66 4 117 42 64z m-124 -48
c0 -33 -10 -71 -19 -71 -8 0 -31 60 -31 81 0 8 5 20 12 27 17 17 38 -4 38 -37z
m-1293 -6 c47 -49 59 -95 24 -95 -26 0 -101 87 -101 116 0 37 28 29 77 -21z
m353 26 c129 -5 345 -5 480 -1 264 9 283 7 328 -42 30 -33 18 -43 -74 -62
-133 -28 -291 -39 -569 -40 -242 -1 -288 1 -338 17 -74 23 -116 60 -124 111
l-6 39 34 -7 c19 -4 140 -10 269 -15z m3156 -345 c-20 -119 -21 -190 -1 -206
35 -29 0 -147 -52 -174 -16 -8 -69 -18 -117 -22 l-87 -7 5 24 c3 13 17 102 31
197 28 193 43 242 74 242 13 0 27 12 36 30 18 35 30 38 47 10 17 -27 32 -25
54 8 16 23 19 24 22 9 2 -10 -3 -60 -12 -111z m308 6 c3 -5 -12 -19 -33 -30
-59 -33 -95 -26 -53 10 29 26 76 36 86 20z m681 -8 c21 -22 3 -44 -37 -44 -36
0 -49 27 -23 46 25 18 40 18 60 -2z m-864 -90 c5 -6 27 -14 49 -18 35 -5 42
-11 56 -45 22 -55 54 -66 189 -65 156 1 338 52 384 108 17 20 76 39 100 31 11
-3 29 -21 40 -40 16 -27 31 -37 75 -50 58 -17 86 -37 86 -59 0 -24 -25 -35
-101 -46 -219 -33 -427 -81 -475 -111 -42 -25 -60 -24 -89 7 -33 36 -77 43
-246 44 l-147 0 5 48 c8 99 24 208 35 242 l11 35 10 -35 c5 -19 13 -40 18 -46z
m-723 44 c-7 -19 -44 -26 -147 -27 -105 -1 -111 8 -18 25 88 16 170 17 165 2z
m326 -34 c11 -4 16 -18 16 -43 0 -38 -55 -379 -62 -386 -15 -15 -644 -50 -746
-42 -35 3 -70 11 -77 18 -21 21 -7 66 32 102 19 18 66 71 103 119 109 137 104
135 305 141 186 6 228 15 247 55 7 14 24 29 38 33 32 9 124 11 144 3z m-466
-41 c-21 -2 -55 -2 -75 0 -21 2 -4 4 37 4 41 0 58 -2 38 -4z m219 1 c-7 -8
-87 -7 -95 0 -3 3 19 6 48 6 29 0 51 -3 47 -6z m1598 -204 c9 -14 -39 -30 -91
-30 -46 0 -57 12 -26 29 22 13 109 14 117 1z m303 -12 c4 -22 -38 -34 -68 -18
-17 9 -19 14 -9 26 17 20 73 14 77 -8z m208 -35 c38 -24 29 -36 -22 -30 -52 5
-70 18 -60 42 7 20 42 14 82 -12z m-866 -41 c0 -31 -86 -90 -116 -78 -18 7
-18 40 0 55 28 23 116 41 116 23z m790 -31 c0 -15 -84 -43 -120 -39 -43 4 -49
23 -13 36 35 13 133 15 133 3z m2840 -209 c0 -15 -34 -39 -63 -46 -47 -11 -53
5 -11 30 39 24 74 31 74 16z m-2621 -33 c11 -17 34 -75 52 -128 45 -134 49
-222 16 -367 -51 -226 -140 -327 -318 -363 -87 -18 -363 -41 -484 -41 -137 0
-318 36 -377 75 -90 59 -138 176 -138 331 0 113 17 200 68 354 l39 115 99 3
c138 4 469 -14 493 -28 33 -17 25 -47 -19 -75 -54 -34 -55 -65 -1 -62 43 1 82
-20 107 -59 24 -36 6 -49 -69 -49 -96 0 -180 58 -236 162 -28 52 -69 74 -56
31 4 -12 38 -76 76 -141 113 -190 129 -236 88 -257 -16 -9 -28 -9 -50 1 -46
18 -63 61 -61 147 1 41 -3 82 -8 93 -15 27 -69 25 -111 -4 -33 -22 -34 -25
-34 -89 0 -36 -3 -69 -7 -73 -4 -4 -43 -2 -87 6 -45 7 -83 10 -87 7 -10 -11
56 -129 97 -173 51 -55 90 -68 187 -64 76 4 77 4 74 -20 l-4 -23 114 7 c113 7
114 7 145 -19 l30 -25 24 25 c23 25 27 26 104 20 69 -6 85 -4 117 14 47 25 60
25 83 0 24 -27 51 -25 71 5 25 39 15 60 -29 59 -34 -1 -37 1 -31 20 4 11 13
33 20 48 8 15 14 36 14 48 0 25 -17 25 -110 4 -106 -24 -122 -19 -139 41 -7
28 -14 93 -14 145 -1 79 2 103 21 144 28 62 29 79 1 71 -12 -4 -40 0 -65 10
-42 16 -53 28 -36 39 21 13 309 62 380 65 26 1 36 -5 51 -30z m2481 -28 c0 -6
-10 -17 -22 -25 -25 -18 -44 -7 -35 18 7 17 57 23 57 7z m-2898 -154 c5 -10 7
-21 4 -24 -10 -10 -37 19 -58 61 l-20 41 32 -30 c17 -16 36 -38 42 -48z m758
-12 c152 -19 429 -19 615 1 144 14 235 13 264 -5 24 -15 8 -45 -29 -54 -60
-14 -814 -21 -909 -8 -81 11 -121 29 -121 56 0 20 24 36 45 30 11 -3 72 -12
135 -20z m984 -38 c37 -53 46 -82 24 -75 -16 5 -78 96 -78 114 0 27 18 14 54
-39z m-2616 17 c18 -12 21 -20 16 -42 -14 -55 -46 -132 -56 -132 -5 0 -23 14
-39 31 -29 31 -31 31 -92 25 -34 -4 -161 -28 -281 -52 -121 -25 -223 -41 -227
-37 -4 4 -24 35 -43 67 -38 63 -46 110 -21 119 42 17 563 46 670 39 28 -3 60
-11 73 -18z m-143 -174 c4 -6 -8 -10 -29 -10 -20 0 -36 5 -36 10 0 6 13 10 29
10 17 0 33 -4 36 -10z m963 -43 c3 -17 -48 -77 -66 -77 -5 0 -13 12 -17 28 -3
15 -16 37 -28 50 l-21 23 64 -3 c52 -2 65 -6 68 -21z m-334 -108 c-17 -29 -52
5 -39 39 6 15 8 15 26 -7 10 -12 16 -27 13 -32z m394 -11 c-2 -15 -11 -24 -25
-26 -28 -4 -31 22 -5 37 26 16 34 13 30 -11z m912 -308 c19 -6 10 -8 -35 -9
-42 0 -56 2 -45 9 17 11 45 11 80 0z m-1034 -214 c3 -8 4 -23 2 -32 -3 -17 -4
-17 -20 0 -10 10 -18 24 -18 32 0 18 29 18 36 0z"/>
<path d="M4133 3304 c3 -3 22 -6 42 -6 20 0 39 3 42 6 4 3 -15 6 -42 6 -27 0
-46 -3 -42 -6z"/>
<path d="M3975 3280 c-14 -6 -4 -9 34 -9 30 -1 52 1 50 3 -11 9 -66 13 -84 6z"/>
<path d="M3725 3250 c-23 -6 -15 -8 34 -9 35 0 62 1 60 3 -10 9 -67 12 -94 6z"/>
<path d="M4101 2510 c-18 -11 -9 -44 13 -48 21 -4 37 14 29 34 -6 17 -27 24
-42 14z"/>
<path d="M3560 2475 c-17 -20 3 -45 36 -45 34 0 41 20 14 42 -27 22 -34 22
-50 3z"/>
<path d="M4260 2480 c-20 -13 -2 -44 29 -48 29 -5 40 27 16 44 -22 16 -25 17
-45 4z"/>
<path d="M3370 2453 c-41 -16 -26 -53 22 -53 36 0 49 27 23 46 -20 15 -22 15
-45 7z"/>
<path d="M2967 2443 c-21 -20 17 -73 52 -73 28 0 33 25 10 54 -20 25 -48 34
-62 19z"/>
<path d="M3876 2434 c-9 -8 -16 -19 -16 -24 0 -15 31 -40 49 -40 24 0 51 31
51 58 0 18 -6 22 -34 22 -19 0 -42 -7 -50 -16z"/>
<path d="M2405 2386 c-36 -26 12 -58 59 -40 22 8 20 31 -3 44 -26 13 -33 13
-56 -4z"/>
<path d="M2745 2376 c-28 -21 -8 -52 31 -49 37 3 52 19 38 41 -15 23 -44 26
-69 8z"/>
<path d="M3430 2350 c-32 -32 -4 -52 44 -34 29 11 14 54 -20 54 -2 0 -13 -9
-24 -20z"/>
<path d="M1535 2290 c-9 -14 22 -60 39 -60 7 0 19 7 26 15 10 13 10 19 -5 35
-20 22 -50 26 -60 10z"/>
<path d="M1335 2266 c-16 -12 -17 -16 -6 -30 7 -9 24 -16 36 -16 12 0 29 7 36
16 11 14 10 18 -6 30 -10 8 -24 14 -30 14 -6 0 -20 -6 -30 -14z"/>
<path d="M966 2234 c-7 -19 10 -44 30 -44 19 0 18 25 -2 44 -19 20 -20 20 -28
0z"/>
<path d="M3110 2225 c0 -24 24 -44 37 -31 9 8 -14 56 -27 56 -5 0 -10 -11 -10
-25z"/>
<path d="M2495 2216 c-19 -28 -14 -56 8 -56 21 0 39 26 35 51 -4 32 -24 34
-43 5z"/>
<path d="M1717 2183 c-12 -12 -7 -43 6 -43 18 0 49 34 40 43 -8 9 -38 9 -46 0z"/>
<path d="M3682 2151 c-21 -13 -10 -46 16 -49 27 -4 40 22 22 43 -14 17 -20 18
-38 6z"/>
<path d="M2574 2115 c-8 -21 14 -45 42 -45 34 0 41 20 14 42 -27 22 -49 23
-56 3z"/>
<path d="M3500 2115 c-11 -13 -11 -19 3 -32 21 -21 49 -9 45 19 -4 28 -30 35
-48 13z"/>
<path d="M2857 2072 c-21 -23 -22 -52 -2 -52 18 0 49 45 40 60 -9 15 -20 12
-38 -8z"/>
<path d="M1154 2059 c-3 -6 3 -20 14 -32 19 -19 22 -19 28 -4 13 35 -23 66
-42 36z"/>
<path d="M2394 2025 c-34 -34 -22 -49 33 -42 55 6 83 28 63 51 -19 24 -67 20
-96 -9z"/>
<path d="M2025 2029 c-4 -5 -4 -21 -1 -33 7 -27 -6 -40 -46 -50 -31 -7 -41
-46 -12 -46 23 0 97 22 112 33 15 12 16 79 0 95 -15 15 -45 16 -53 1z"/>
<path d="M3227 2033 c-3 -5 -10 -28 -17 -52 -12 -45 -5 -60 27 -61 36 0 59 80
31 108 -14 14 -35 16 -41 5z"/>
<path d="M3899 2006 c-32 -28 -64 -74 -56 -82 10 -10 61 32 80 64 22 38 10 47
-24 18z"/>
<path d="M1807 1973 c-13 -12 -7 -44 9 -50 23 -9 48 25 33 44 -12 14 -32 17
-42 6z"/>
<path d="M1334 1955 c-16 -13 -17 -16 -4 -25 38 -25 90 0 55 27 -24 16 -27 16
-51 -2z"/>
<path d="M1624 1935 c-8 -21 2 -45 19 -45 21 0 38 25 31 44 -8 20 -43 21 -50
1z"/>
<path d="M2600 1902 c-20 -16 -20 -19 -6 -31 10 -9 28 -11 51 -7 40 8 51 21
35 41 -17 20 -53 19 -80 -3z"/>
<path d="M2727 1883 c-13 -12 -7 -41 10 -47 21 -9 46 16 37 37 -6 17 -35 23
-47 10z"/>
<path d="M2306 1783 c-4 -9 0 -23 9 -32 13 -14 17 -14 31 1 9 9 14 24 11 32
-8 21 -43 20 -51 -1z"/>
<path d="M4780 2115 c-22 -26 4 -43 30 -20 20 18 18 35 -4 35 -8 0 -19 -7 -26
-15z"/>
<path d="M4351 1894 c-126 -18 -132 -22 -31 -23 77 -1 340 25 349 35 10 10
-232 1 -318 -12z"/>
<path d="M5855 1169 c-7 -11 22 -49 37 -49 12 0 10 34 -4 48 -15 15 -25 15
-33 1z"/>
<path d="M5940 1105 c-17 -20 3 -45 36 -45 34 0 41 20 14 42 -27 22 -34 22
-50 3z"/>
<path d="M5862 5109 c-26 -32 -42 -62 -42 -78 0 -31 52 -119 75 -127 15 -6 82
34 106 62 22 26 11 63 -35 128 -26 37 -50 66 -55 66 -4 0 -26 -23 -49 -51z
m66 -96 c4 -29 -23 -31 -38 -4 -15 28 -13 33 13 29 14 -2 23 -11 25 -25z"/>
<path d="M6681 5125 c-59 -50 -87 -190 -47 -234 11 -12 26 -21 33 -21 18 0
122 105 133 134 5 13 2 32 -7 51 -21 41 -62 95 -73 95 -5 0 -22 -11 -39 -25z"/>
<path d="M5582 5085 c-49 -44 -76 -92 -63 -112 3 -6 16 -15 29 -22 12 -7 22
-21 22 -34 1 -63 32 -57 98 21 69 83 72 111 19 170 -29 32 -48 28 -105 -23z"/>
<path d="M6407 5119 c-9 -5 -24 -24 -33 -41 -14 -27 -15 -39 -4 -83 7 -29 11
-69 8 -89 -2 -20 0 -36 4 -36 5 0 38 23 73 52 75 60 79 76 39 156 -27 54 -48
64 -87 41z"/>
<path d="M6151 5097 c-14 -16 -25 -46 -32 -87 -10 -66 -9 -170 2 -170 4 0 41
33 83 73 69 65 76 76 76 110 0 29 -7 46 -29 68 -36 35 -70 37 -100 6z"/>
<path d="M6921 5066 c-28 -30 -51 -63 -51 -74 0 -29 43 -87 68 -90 25 -4 56
39 73 103 12 45 -3 115 -25 115 -7 0 -36 -24 -65 -54z"/>
<path d="M5306 5040 c-39 -82 -44 -116 -21 -160 21 -41 46 -38 89 10 45 50 45
75 1 160 l-33 65 -36 -75z"/>
<path d="M11741 4855 c-2 -82 46 -414 62 -430 14 -15 2 212 -17 318 -9 48 -23
102 -30 120 l-14 32 -1 -40z"/>
<path d="M5482 4708 c-56 -57 -68 -89 -53 -137 6 -21 21 -50 32 -65 21 -26 22
-26 41 -9 45 40 65 121 49 192 -14 65 -23 67 -69 19z"/>
<path d="M6015 4724 c-37 -40 -51 -119 -36 -204 7 -39 16 -70 21 -70 4 0 33
27 64 61 46 49 56 67 56 95 0 55 -44 144 -72 144 -5 0 -20 -12 -33 -26z"/>
<path d="M5741 4724 c-13 -9 -30 -32 -37 -51 -15 -34 -10 -72 16 -143 5 -14
14 -38 20 -53 l10 -29 40 32 c23 18 52 48 67 66 24 32 25 38 15 73 -16 50 -68
121 -90 121 -10 0 -28 -7 -41 -16z m69 -126 c0 -24 -26 -34 -45 -18 -18 15
-19 42 -3 58 15 15 48 -12 48 -40z"/>
<path d="M6262 4678 c-72 -112 -78 -188 -17 -204 37 -9 70 2 111 38 34 30 36
35 31 79 -7 58 -46 143 -68 147 -10 2 -31 -19 -57 -60z"/>
<path d="M6505 4660 c-54 -75 -65 -98 -65 -145 0 -26 6 -39 25 -51 23 -15 29
-15 52 -3 36 19 83 86 82 118 0 14 -10 53 -23 86 l-23 59 -48 -64z"/>
<path d="M6736 4662 c-57 -75 -66 -105 -37 -136 18 -19 21 -30 15 -65 -4 -27
-3 -41 4 -41 22 0 132 101 138 126 5 19 -3 46 -27 96 -19 38 -37 72 -41 74 -3
2 -27 -22 -52 -54z"/>
<path d="M5232 4688 c-20 -20 -15 -74 9 -90 21 -13 21 -15 5 -46 -21 -40 -50
-56 -90 -48 l-31 6 30 -25 c42 -35 62 -39 91 -20 32 21 84 93 84 117 0 22 -25
75 -48 101 -18 20 -33 22 -50 5z"/>
<path d="M11887 4553 c-10 -9 -9 -123 1 -123 10 0 42 65 42 84 0 17 -35 48
-43 39z"/>
<path d="M5088 4336 c-10 -23 -8 -29 10 -49 l22 -23 -25 -24 c-14 -13 -25 -27
-25 -31 0 -4 19 -18 43 -32 23 -14 60 -44 82 -66 21 -23 45 -41 52 -41 20 0
73 80 73 109 0 15 -15 58 -34 96 l-34 70 -22 -50 c-12 -27 -30 -68 -39 -90
l-18 -39 -6 67 c-3 37 -12 80 -19 95 -18 36 -45 40 -60 8z"/>
<path d="M5523 4315 c-28 -19 -83 -107 -83 -131 0 -11 9 -27 20 -37 11 -9 20
-29 21 -44 0 -16 4 -36 8 -46 7 -18 7 -18 28 0 48 41 103 115 103 139 0 30
-31 92 -57 116 -17 16 -21 16 -40 3z"/>
<path d="M5797 4270 c-39 -42 -57 -69 -57 -87 0 -34 46 -113 66 -113 21 0 103
79 110 105 4 14 -7 47 -28 90 l-34 67 -57 -62z"/>
<path d="M6097 4291 c-53 -59 -70 -97 -62 -139 15 -78 57 -102 108 -62 33 26
48 77 37 127 -9 40 -38 113 -44 113 -2 0 -20 -18 -39 -39z"/>
<path d="M6330 4270 c-37 -43 -53 -70 -53 -90 0 -42 60 -150 84 -150 4 0 12
14 18 30 6 20 17 30 30 30 60 0 64 28 21 137 -46 115 -40 112 -100 43z"/>
<path d="M6608 4313 c-30 -34 -38 -62 -37 -125 0 -86 18 -134 47 -131 36 4 99
52 117 89 21 44 7 100 -36 149 -34 39 -67 45 -91 18z"/>
<path d="M6905 4290 c-30 -48 -65 -133 -65 -160 0 -10 5 -22 11 -25 15 -10 77
-10 86 -1 10 10 22 153 15 194 -2 17 -8 32 -13 32 -5 0 -20 -18 -34 -40z"/>
<path d="M5136 4078 c-5 -16 -5 -40 0 -55 l8 -28 4 28 c2 15 2 39 0 55 l-4 27
-8 -27z"/>
<path d="M5941 3929 c-66 -82 -78 -113 -62 -152 8 -18 16 -52 20 -76 3 -25 12
-46 19 -49 7 -2 42 25 78 60 77 78 79 92 25 197 l-37 73 -43 -53z"/>
<path d="M7344 3895 c0 -49 1 -71 3 -48 2 23 2 64 0 90 -2 26 -3 8 -3 -42z"/>
<path d="M5303 3938 c-30 -51 -53 -116 -53 -148 0 -31 48 -170 59 -170 6 0 58
65 94 120 10 13 17 36 17 51 0 45 -67 179 -90 179 -4 0 -17 -15 -27 -32z m48
-122 c13 -27 -3 -66 -26 -66 -11 0 -15 12 -15 45 0 51 22 63 41 21z"/>
<path d="M6584 3933 c-4 -20 -22 -53 -42 -75 l-36 -40 21 -41 c12 -23 25 -60
30 -82 5 -23 14 -41 24 -43 20 -4 127 75 135 100 11 35 -88 218 -117 218 -5 0
-11 -16 -15 -37z"/>
<path d="M5634 3913 c-50 -53 -84 -106 -84 -132 0 -29 48 -161 58 -161 4 0 19
19 34 43 15 23 43 58 62 76 43 41 45 64 12 129 -37 73 -50 80 -82 45z m24
-105 c-2 -23 -9 -34 -22 -36 -31 -6 -41 14 -22 42 24 38 48 34 44 -6z"/>
<path d="M6228 3900 c-42 -45 -46 -68 -22 -106 9 -13 19 -50 23 -82 4 -36 11
-57 19 -57 6 0 41 26 77 58 76 68 80 87 35 152 -61 89 -76 93 -132 35z"/>
<path d="M6852 3883 c-55 -79 -57 -233 -3 -233 30 0 87 193 70 237 -12 31 -43
29 -67 -4z"/>
<path d="M7494 3645 c0 -82 2 -115 3 -72 2 43 2 110 0 150 -1 40 -3 5 -3 -78z"/>
<path d="M7728 3694 c-3 -73 8 -273 16 -281 26 -27 35 110 16 256 -13 100 -27
111 -32 25z"/>
<path d="M7342 3703 c-24 -44 -8 -293 18 -293 22 0 28 235 6 285 -12 30 -13
30 -24 8z"/>
<path d="M7870 3490 c0 -32 4 -49 10 -45 6 3 10 24 10 45 0 21 -4 42 -10 45
-6 4 -10 -13 -10 -45z"/>
<path d="M5477 3476 c-65 -85 -83 -169 -49 -236 22 -44 41 -45 56 -1 6 19 19
38 29 43 49 23 52 27 50 53 -4 58 -25 135 -42 156 l-17 21 -27 -36z"/>
<path d="M5729 3468 c-17 -32 -24 -141 -10 -166 6 -12 26 -29 43 -38 32 -16
32 -16 60 15 15 17 28 41 28 54 -1 29 -36 106 -62 135 -27 28 -44 28 -59 0z"/>
<path d="M7282 3460 c0 -14 2 -19 5 -12 2 6 2 18 0 25 -3 6 -5 1 -5 -13z"/>
<path d="M6081 3444 c-42 -53 -65 -133 -64 -225 0 -47 3 -92 8 -98 10 -17 122
91 141 135 11 27 11 40 -1 89 -16 59 -39 110 -54 119 -5 4 -19 -5 -30 -20z"/>
<path d="M6690 3433 c-27 -28 -40 -52 -49 -91 -13 -60 -15 -218 -3 -226 11 -7
138 88 158 119 17 25 16 30 -11 118 -15 51 -29 98 -31 105 -6 21 -25 13 -64
-25z"/>
<path d="M6398 3429 c-19 -11 -61 -81 -77 -129 -9 -30 -8 -41 9 -75 11 -22 20
-51 20 -66 0 -29 23 -55 39 -44 6 3 15 24 21 45 8 30 22 47 55 70 25 17 45 38
45 47 0 19 -63 135 -82 151 -8 7 -19 7 -30 1z"/>
<path d="M7135 3409 c-13 -20 -19 -169 -7 -169 11 0 18 23 28 96 7 54 -6 98
-21 73z"/>
<path d="M7750 3320 c0 -22 5 -40 10 -40 6 0 10 18 10 40 0 22 -4 40 -10 40
-5 0 -10 -18 -10 -40z"/>
<path d="M7480 3274 c0 -21 4 -33 10 -29 6 3 10 19 10 36 0 16 -4 29 -10 29
-5 0 -10 -16 -10 -36z"/>
<path d="M7277 3244 c-2 -15 -1 -38 3 -53 7 -21 8 -16 9 27 1 56 -4 67 -12 26z"/>
<path d="M7371 3210 c-1 -54 19 -261 29 -300 5 -20 17 -44 25 -55 15 -18 16
-11 12 91 -2 61 -10 120 -16 132 -7 13 -20 55 -31 95 -15 58 -18 65 -19 37z"/>
<path d="M7760 3128 c0 -107 11 -219 20 -213 15 9 22 173 10 229 -17 85 -30
78 -30 -16z"/>
<path d="M7117 3107 c-14 -54 -27 -268 -27 -450 0 -173 1 -188 17 -185 12 2
21 18 27 48 12 63 12 559 -1 589 l-10 25 -6 -27z"/>
<path d="M7283 3010 c0 -41 2 -58 4 -37 2 20 2 54 0 75 -2 20 -4 3 -4 -38z"/>
<path d="M5227 3033 c-45 -51 -81 -189 -56 -219 10 -12 13 -40 12 -88 -1 -39
2 -78 7 -86 16 -26 49 16 56 74 6 42 14 57 47 88 37 35 39 40 35 81 -5 45 -57
158 -74 164 -6 2 -18 -4 -27 -14z m34 -137 c15 -32 -4 -68 -34 -64 -28 4 -33
32 -13 63 21 31 33 32 47 1z"/>
<path d="M6078 2943 c-84 -89 -86 -96 -44 -150 20 -25 38 -61 42 -80 4 -19 11
-32 18 -30 6 2 30 27 54 56 51 62 53 91 17 188 -14 37 -27 68 -29 70 -1 2 -28
-23 -58 -54z"/>
<path d="M6428 2934 c-48 -35 -78 -96 -78 -161 0 -56 14 -75 48 -66 15 4 27 0
36 -12 11 -16 15 -15 40 16 26 31 28 37 21 89 -4 30 -8 79 -9 108 0 28 -6 52
-11 52 -6 0 -27 -12 -47 -26z"/>
<path d="M5425 2896 c-17 -41 -19 -72 -5 -81 14 -9 42 40 44 76 2 45 -21 48
-39 5z"/>
<path d="M6712 2888 c-7 -7 -12 -19 -12 -28 0 -9 -16 -31 -35 -50 -25 -24 -35
-43 -35 -64 0 -41 45 -136 64 -136 29 0 116 184 116 245 0 39 -69 62 -98 33z"/>
<path d="M7220 2830 c0 -5 17 -10 38 -10 27 0 33 3 22 10 -20 13 -60 13 -60 0z"/>
<path d="M7409 2765 c-15 -38 -26 -295 -11 -295 13 0 20 42 32 174 5 60 6 116
1 129 -9 21 -9 21 -22 -8z"/>
<path d="M7572 2623 c2 -44 7 -58 18 -58 19 0 26 65 10 95 -20 37 -31 22 -28
-37z"/>
<path d="M7756 2534 c-8 -8 -13 -21 -9 -30 8 -22 47 -13 51 12 4 27 -22 38
-42 18z"/>
<path d="M12225 2090 c-14 -6 1 -9 49 -9 38 -1 67 1 65 3 -10 9 -96 14 -114 6z"/>
<path d="M7375 1926 c-16 -12 -18 -17 -7 -28 15 -15 47 0 47 22 0 20 -18 22
-40 6z"/>
<path d="M10037 1576 c-8 -20 19 -47 39 -39 8 3 14 15 12 27 -4 25 -43 34 -51
12z"/>
<path d="M8482 1488 c28 -50 74 -98 94 -98 20 0 6 24 -51 88 -56 63 -75 67
-43 10z"/>
<path d="M1510 1430 c0 -5 16 -10 36 -10 21 0 33 4 29 10 -3 6 -19 10 -36 10
-16 0 -29 -4 -29 -10z"/>
<path d="M2195 1347 c-10 -8 -14 -19 -9 -30 9 -25 48 -18 52 9 4 26 -20 37
-43 21z"/>
<path d="M11830 1345 c-17 -20 -5 -45 20 -45 11 0 23 7 26 15 6 15 -11 45 -26
45 -4 0 -13 -7 -20 -15z"/>
<path d="M2964 1336 c-9 -24 15 -58 39 -54 25 3 34 32 17 53 -16 19 -49 19
-56 1z"/>
<path d="M12382 1338 c-17 -17 -15 -48 4 -55 21 -8 59 30 51 51 -7 19 -38 21
-55 4z"/>
<path d="M4401 1295 c-22 -29 -20 -45 5 -45 20 0 41 47 27 61 -7 7 -17 2 -32
-16z"/>
<path d="M11922 1291 c-20 -12 -10 -46 14 -49 25 -4 40 24 23 44 -13 16 -19
17 -37 5z"/>
<path d="M7402 1261 c-20 -12 -10 -46 14 -49 25 -4 40 24 23 44 -13 16 -19 17
-37 5z"/>
<path d="M10190 1245 c-10 -12 -10 -21 -2 -40 14 -30 23 -31 48 -4 14 15 16
24 8 37 -15 23 -38 26 -54 7z"/>
<path d="M4636 1218 c-9 -13 -12 -26 -7 -31 13 -13 53 12 49 30 -5 26 -25 26
-42 1z"/>
<path d="M1927 1193 c-12 -12 -7 -50 7 -63 20 -16 60 -9 64 12 6 31 -51 72
-71 51z"/>
<path d="M3923 1113 c-17 -6 -17 -43 0 -43 8 0 21 8 30 18 24 26 6 40 -30 25z"/>
<path d="M8204 1109 c-3 -6 3 -20 14 -32 19 -19 22 -19 28 -4 11 29 -26 61
-42 36z"/>
<path d="M1775 1051 c-142 -23 -205 -66 -205 -137 1 -77 76 -219 216 -404 125
-166 260 -277 437 -360 104 -49 165 -56 534 -65 144 -3 315 -12 380 -20 184
-23 1192 -13 1358 14 l50 8 -55 6 c-30 4 -266 9 -525 13 -543 7 -658 17 -320
28 339 10 512 24 551 42 19 9 44 14 58 10 29 -7 88 12 83 28 -2 6 -21 17 -43
25 -30 10 -95 12 -291 8 -139 -3 -253 -4 -253 -2 0 1 27 12 59 24 33 12 70 30
83 40 l23 19 -29 8 c-34 8 -174 0 -484 -28 -128 -11 -236 -18 -239 -15 -3 4 8
20 26 36 34 32 41 60 14 62 -27 2 -26 2 -58 -5 l-30 -6 24 20 c28 24 61 25
103 4 27 -14 44 -14 147 -4 79 8 242 11 511 8 l395 -5 280 -41 c154 -23 395
-57 535 -77 140 -20 334 -51 430 -70 214 -41 304 -52 580 -70 216 -14 882 -29
845 -19 -11 3 -37 10 -57 15 -87 22 -16 47 157 55 66 3 140 7 165 10 l45 6
-50 20 c-40 16 -87 21 -235 27 -161 7 -190 10 -220 28 -23 14 -62 23 -115 28
-113 9 -118 11 -111 46 11 57 -12 63 -479 109 -450 44 -733 76 -1055 118
l-285 37 -525 -1 c-464 -1 -673 -8 -898 -31 l-63 -6 -86 92 c-48 50 -117 112
-154 137 -148 98 -353 171 -614 219 -101 19 -524 30 -610 16z m495 -76 c196
-30 366 -83 558 -175 145 -69 207 -109 298 -190 47 -42 94 -75 117 -82 34 -10
37 -13 22 -24 -44 -32 -339 -57 -607 -52 l-203 4 -115 38 c-401 133 -652 271
-680 377 -11 41 -6 94 11 104 44 28 415 28 599 0z m-208 -466 c331 -124 371
-133 652 -148 93 -6 173 -14 178 -19 29 -29 -251 -156 -373 -169 -66 -7 -91 0
-83 22 6 13 26 21 107 39 15 4 27 11 27 16 0 14 -51 12 -145 -5 -81 -14 -139
-9 -189 17 -93 47 -382 308 -342 308 2 0 78 -27 168 -61z m2528 37 c257 -19
352 -28 660 -66 408 -50 820 -91 1104 -108 l119 -7 -69 -58 c-84 -71 -124 -93
-189 -101 -88 -12 -244 9 -1230 164 -530 84 -633 99 -790 114 -178 18 -472 36
-596 36 -124 0 -133 22 -16 41 79 12 764 2 1007 -15z m-1176 -12 c42 -16 -13
-48 -64 -38 -40 9 -38 20 8 32 20 5 38 10 39 11 1 1 8 -2 17 -5z m-344 -142
c0 -5 -13 -27 -29 -49 -28 -39 -159 -119 -183 -111 -11 4 57 72 132 132 42 34
80 47 80 28z m180 -222 c0 -19 -40 -30 -106 -30 -71 0 -77 11 -14 28 46 13
120 15 120 2z m-225 -20 c-3 -5 -21 -10 -40 -10 -19 0 -37 5 -40 10 -4 6 12
10 40 10 28 0 44 -4 40 -10z"/>
<path d="M4343 993 c-20 -8 -15 -41 7 -48 29 -9 60 3 60 25 0 25 -34 37 -67
23z"/>
<path d="M9370 976 c-27 -33 18 -72 48 -42 13 13 14 20 6 34 -15 23 -38 26
-54 8z"/>
<path d="M3320 925 c-11 -13 -11 -19 3 -32 21 -21 49 -9 45 19 -4 28 -30 35
-48 13z"/>
<path d="M5152 858 c-19 -19 -14 -44 13 -58 22 -12 28 -12 42 3 15 15 15 18
-1 41 -18 28 -35 33 -54 14z"/>
<path d="M8980 770 c0 -22 34 -44 56 -36 19 7 18 42 -2 50 -31 12 -54 6 -54
-14z"/>
<path d="M1371 616 c-16 -20 -3 -46 24 -46 13 0 26 7 29 16 7 19 -10 44 -29
44 -7 0 -18 -6 -24 -14z"/>
<path d="M9687 603 c-12 -11 -8 -41 6 -46 20 -7 57 15 57 35 0 13 -7 18 -28
18 -16 0 -32 -3 -35 -7z"/>
<path d="M11884 385 c-14 -35 31 -48 59 -17 10 10 14 22 10 25 -12 13 -64 7
-69 -8z"/>
<path d="M8940 351 c-5 -11 -7 -27 -4 -35 13 -33 54 -9 54 31 0 29 -35 32 -50
4z"/>
<path d="M5294 155 c-6 -16 12 -45 27 -45 5 0 9 11 9 24 0 27 -28 43 -36 21z"/>
<path d="M5414 35 c-8 -19 3 -35 25 -35 22 0 45 25 36 40 -9 15 -55 12 -61 -5z"/>
</g>
</svg>
